<svg width="48" height="27" viewBox="0 0 48 27" fill="none" xmlns="http://www.w3.org/2000/svg">
<path d="M34.5 27C41.94 27 48 20.9475 48 13.5C48 6.0525 41.94 0 34.5 0L13.5 0C6.0645 0 0 6.0645 0 13.5C0 20.9355 6.0645 27 13.5 27L34.5 27ZM13.5 24C7.6815 24 3 19.3185 3 13.5C3 7.6815 7.6815 3 13.5 3C19.3185 3 24 7.6815 24 13.5C24 19.3185 19.3185 24 13.5 24Z" fill="#B6B6B6"/>
<path d="M13.5 24C7.6815 24 3 19.3185 3 13.5C3 7.6815 7.6815 3 13.5 3C19.3185 3 24 7.6815 24 13.5C24 19.3185 19.3185 24 13.5 24Z" fill="#F6F5F5"/>
</svg>
