<svg width="11" height="9" viewBox="0 0 11 9" fill="none" xmlns="http://www.w3.org/2000/svg">
<path d="M1 1L5.25769 7.83169C5.28877 7.88482 5.32631 7.92717 5.36798 7.95612C5.40966 7.98506 5.45459 8 5.5 8C5.54541 8 5.59034 7.98506 5.63202 7.95612C5.67369 7.92717 5.71123 7.88482 5.74231 7.83169L10 1" fill="#010000"/>
<path d="M1 1L5.25769 7.83169C5.28877 7.88482 5.32631 7.92717 5.36798 7.95612C5.40966 7.98506 5.45459 8 5.5 8C5.54541 8 5.59034 7.98506 5.63202 7.95612C5.67369 7.92717 5.71123 7.88482 5.74231 7.83169L10 1" stroke="#000001" stroke-linejoin="round"/>
<path d="M1 1L10 1" stroke="#000001" stroke-linecap="round" stroke-linejoin="round"/>
</svg>
