<svg width="23" height="25" viewBox="0 0 23 25" fill="none" xmlns="http://www.w3.org/2000/svg">
<path d="M22.75 24.0083H22.8V23.9583V22.75C22.8 20.4935 21.9036 18.3293 20.308 16.7337C18.7123 15.1381 16.5482 14.2417 14.2917 14.2417H9.45833C7.20178 14.2417 5.03765 15.1381 3.44203 16.7337C1.84641 18.3293 0.95 20.4935 0.95 22.75V23.9583V24.0083H1H3.41667H3.46667V23.9583V22.75C3.46667 21.1609 4.09793 19.6369 5.22159 18.5133C6.34524 17.3896 7.86925 16.7583 9.45833 16.7583H14.2917C15.8808 16.7583 17.4048 17.3896 18.5284 18.5133C19.6521 19.6369 20.2833 21.1609 20.2833 22.75V23.9583V24.0083H20.3333H22.75ZM11.875 0.95C10.6702 0.95 9.49242 1.30727 8.49065 1.97663C7.48888 2.64599 6.7081 3.59738 6.24703 4.71049C5.78597 5.82359 5.66533 7.04842 5.90038 8.23009C6.13543 9.41176 6.71561 10.4972 7.56754 11.3491C8.41948 12.2011 9.50491 12.7812 10.6866 13.0163C11.8682 13.2513 13.0931 13.1307 14.2062 12.6696C15.3193 12.2086 16.2707 11.4278 16.94 10.426C17.6094 9.42425 17.9667 8.24648 17.9667 7.04167C17.9667 5.42606 17.3249 3.87662 16.1825 2.73421C15.0401 1.5918 13.4906 0.95 11.875 0.95ZM11.875 10.6167C11.1679 10.6167 10.4767 10.407 9.88884 10.0142C9.30093 9.62134 8.84271 9.06301 8.57213 8.40976C8.30155 7.75651 8.23075 7.0377 8.36869 6.34422C8.50663 5.65074 8.84712 5.01373 9.34709 4.51376C9.84707 4.01379 10.4841 3.6733 11.1776 3.53536C11.871 3.39742 12.5898 3.46821 13.2431 3.7388C13.8963 4.00938 14.4547 4.4676 14.8475 5.0555C15.2403 5.64341 15.45 6.3346 15.45 7.04167C15.45 7.98982 15.0733 8.89913 14.4029 9.56957C13.7325 10.24 12.8231 10.6167 11.875 10.6167Z" fill="#585858" stroke="#585858" stroke-width="0.1"/>
</svg>
