<svg fill="none" height="14" viewBox="0 0 16 14" width="16" xmlns="http://www.w3.org/2000/svg"><g stroke="#000001" stroke-linecap="round" stroke-linejoin="round" stroke-width="1.2"><path d="m1.73076 5.03845h9.23074c.153 0 .2998.06079.408.16898s.169.25494.169.40795v5.19232c0 .612-.2432 1.199-.676 1.6318-.4327.4327-1.0197.6759-1.63174.6759h-5.76923c-.61204 0-1.19901-.2432-1.63178-.6759-.43278-.4328-.67591-1.0198-.67591-1.6318v-5.19232c0-.15301.06078-.29976.16898-.40795.10819-.10819.25493-.16898.40794-.16898z"/><path d="m11.5385 6.19232h1.1538c.612 0 1.199.24313 1.6318.67591s.6759 1.01975.6759 1.63178c0 .61204-.2431 1.19901-.6759 1.63179-.4328.4328-1.0198.6759-1.6318.6759h-1.1538"/><path d="m2.88461 1v1.15385"/><path d="m8.65384 1v1.15385"/><path d="m5.76923 1v1.15385"/></g></svg>