<svg width="22" height="22" viewBox="0 0 22 22" fill="none" xmlns="http://www.w3.org/2000/svg">
<path d="M11.0002 11.9167C11.2433 11.9167 11.4764 11.8201 11.6483 11.6482C11.8203 11.4763 11.9168 11.2431 11.9168 11V1.83332C11.9168 1.59021 11.8203 1.35705 11.6483 1.18514C11.4764 1.01323 11.2433 0.916656 11.0002 0.916656C10.757 0.916656 10.5239 1.01323 10.352 1.18514C10.1801 1.35705 10.0835 1.59021 10.0835 1.83332V11C10.0835 11.2431 10.1801 11.4763 10.352 11.6482C10.5239 11.8201 10.757 11.9167 11.0002 11.9167Z" fill="#585858"/>
<path d="M15.2077 2.85082C14.9913 2.73899 14.7394 2.71769 14.5073 2.79161C14.2752 2.86553 14.082 3.02861 13.9702 3.24499C13.8583 3.46136 13.837 3.71329 13.911 3.94537C13.9849 4.17745 14.148 4.37065 14.3643 4.48249C15.825 5.2366 16.9899 6.45961 17.6721 7.9552C18.3544 9.4508 18.5143 11.1322 18.1263 12.7296C17.7383 14.327 16.8248 15.7477 15.5325 16.7637C14.2402 17.7797 12.644 18.332 11.0002 18.332C9.35632 18.332 7.76015 17.7797 6.46785 16.7637C5.17555 15.7477 4.26208 14.327 3.87406 12.7296C3.48604 11.1322 3.64597 9.4508 4.32819 7.9552C5.01041 6.45961 6.17534 5.2366 7.636 4.48249C7.74314 4.42711 7.83832 4.35118 7.91611 4.25902C7.9939 4.16686 8.05278 4.06028 8.08938 3.94537C8.12598 3.83046 8.13959 3.70946 8.12943 3.58929C8.11927 3.46912 8.08554 3.35212 8.03017 3.24499C7.97479 3.13785 7.89886 3.04267 7.8067 2.96488C7.71454 2.88709 7.60797 2.82821 7.49305 2.79161C7.37814 2.75501 7.25714 2.7414 7.13697 2.75156C7.0168 2.76172 6.89981 2.79545 6.79267 2.85082C4.9673 3.79387 3.51168 5.32282 2.65939 7.19229C1.80711 9.06176 1.60758 11.1634 2.09284 13.1598C2.57809 15.1563 3.71999 16.9318 5.33528 18.2015C6.95057 19.4712 8.94559 20.1615 11.0002 20.1615C13.0548 20.1615 15.0498 19.4712 16.6651 18.2015C18.2803 16.9318 19.4222 15.1563 19.9075 13.1598C20.3928 11.1634 20.1932 9.06176 19.3409 7.19229C18.4887 5.32282 17.033 3.79387 15.2077 2.85082V2.85082Z" fill="#585858"/>
</svg>
