<svg width="48" height="27" viewBox="0 0 48 27" fill="none" xmlns="http://www.w3.org/2000/svg">
<path d="M13.5 0C6.06 0 0 6.0525 0 13.5C0 20.9475 6.06 27 13.5 27H34.5C41.9355 27 48 20.9355 48 13.5C48 6.0645 41.9355 0 34.5 0H13.5ZM34.5 3C40.3185 3 45 7.6815 45 13.5C45 19.3185 40.3185 24 34.5 24C28.6815 24 24 19.3185 24 13.5C24 7.6815 28.6815 3 34.5 3Z" fill="#B6B6B6"/>
<path d="M34.5 3C40.3185 3 45 7.6815 45 13.5C45 19.3185 40.3185 24 34.5 24C28.6815 24 24 19.3185 24 13.5C24 7.6815 28.6815 3 34.5 3Z" fill="#F6F5F5"/>
</svg>
