<svg width="17" height="17" viewBox="0 0 17 17" fill="none" xmlns="http://www.w3.org/2000/svg">
<path d="M2.73076 5.03845H11.9615C12.1145 5.03845 12.2613 5.09924 12.3695 5.20743C12.4777 5.31562 12.5385 5.46237 12.5385 5.61538V10.8077C12.5385 11.4197 12.2953 12.0067 11.8625 12.4395C11.4298 12.8722 10.8428 13.1154 10.2308 13.1154H4.46153C3.84949 13.1154 3.26252 12.8722 2.82975 12.4395C2.39697 12.0067 2.15384 11.4197 2.15384 10.8077V5.61538C2.15384 5.46237 2.21462 5.31562 2.32282 5.20743C2.43101 5.09924 2.57775 5.03845 2.73076 5.03845V5.03845Z" stroke="#000001" stroke-width="1.2" stroke-linecap="round" stroke-linejoin="round"/>
<path d="M1 16H16" stroke="#000001" stroke-width="1.2" stroke-linecap="round" stroke-linejoin="round"/>
<path d="M12.5385 6.19232H13.6923C14.3043 6.19232 14.8913 6.43545 15.3241 6.86823C15.7569 7.30101 16 7.88798 16 8.50001C16 9.11205 15.7569 9.69902 15.3241 10.1318C14.8913 10.5646 14.3043 10.8077 13.6923 10.8077H12.5385" stroke="#000001" stroke-width="1.2" stroke-linecap="round" stroke-linejoin="round"/>
<path d="M3.88461 1V2.15385" stroke="#000001" stroke-width="1.2" stroke-linecap="round" stroke-linejoin="round"/>
<path d="M9.65384 1V2.15385" stroke="#000001" stroke-width="1.2" stroke-linecap="round" stroke-linejoin="round"/>
<path d="M6.76923 1V2.15385" stroke="#000001" stroke-width="1.2" stroke-linecap="round" stroke-linejoin="round"/>
</svg>
