<svg width="34" height="26" viewBox="0 0 34 26" fill="none" xmlns="http://www.w3.org/2000/svg">
<path d="M17 0.533369C15.4677 0.510702 15.4677 2.8227 17 2.80004H20.4V5.66964L14.0465 10.96L11.8388 5.0667H12.4667C13.9989 5.08937 13.9989 2.77737 12.4667 2.80004H7.93333C6.40107 2.77737 6.40107 5.08937 7.93333 5.0667H9.4112L11.4308 10.45C10.3469 9.89861 9.14939 9.60757 7.93333 9.60004C3.56547 9.60004 0 13.1655 0 17.5334C0 21.9012 3.56547 25.4667 7.93333 25.4667C12.3012 25.4667 15.8667 21.9012 15.8667 17.5334C15.8667 16.0147 15.4133 14.6071 14.6653 13.399L21.0596 8.0723L22.1091 10.7016C19.7427 12.0798 18.1333 14.6116 18.1333 17.5334C18.1333 21.9012 21.6988 25.4667 26.0667 25.4667C30.4345 25.4667 34 21.9012 34 17.5334C34 13.1655 30.4345 9.60004 26.0667 9.60004C25.4252 9.60004 24.8109 9.6975 24.2125 9.84257L22.6667 5.9779V1.6667C22.6667 1.36612 22.5473 1.07786 22.3347 0.865315C22.1222 0.652773 21.8339 0.533369 21.5333 0.533369H17ZM7.93333 11.8667C9.21687 11.8699 10.4607 12.3122 11.458 13.1202L7.208 16.6607C6.04973 17.6286 7.49813 19.3694 8.65867 18.406L12.9087 14.8632C13.3348 15.6611 13.6 16.5632 13.6 17.5334C13.6 20.6772 11.0772 23.2 7.93333 23.2C4.78947 23.2 2.26667 20.6772 2.26667 17.5334C2.26667 14.3895 4.78947 11.8667 7.93333 11.8667ZM26.0667 11.8667C29.2105 11.8667 31.7333 14.3895 31.7333 17.5334C31.7333 20.6772 29.2105 23.2 26.0667 23.2C22.9228 23.2 20.4 20.6772 20.4 17.5334C20.3979 16.5947 20.63 15.6703 21.0753 14.8439C21.5206 14.0175 22.1649 13.3152 22.95 12.8006L25.0127 17.955C25.5703 19.3671 27.6873 18.5216 27.1207 17.1118L25.0625 11.9664C25.3867 11.912 25.7221 11.8667 26.0667 11.8667Z" fill="#585858"/>
</svg>
