<svg width="25" height="25" viewBox="0 0 25 25" fill="none" xmlns="http://www.w3.org/2000/svg">
<path d="M20.4657 9.01952C21.2457 9.79952 20.6886 11.1367 19.5867 11.1367C19.2524 11.1367 18.9429 11.0005 18.7076 10.7776L10.4 2.47L4.2219 8.66048H6.19048C6.87143 8.66048 7.42857 9.21762 7.42857 9.89857C7.42857 10.5795 6.87143 11.1367 6.19048 11.1367H1.2381C0.557143 11.1367 0 10.5795 0 9.89857V4.94619C0 4.26524 0.557143 3.7081 1.2381 3.7081C1.91905 3.7081 2.47619 4.26524 2.47619 4.94619V6.91476L8.66667 0.724286C9.63238 -0.241429 11.2048 -0.241429 12.1705 0.724286L20.4657 9.01952ZM4.29619 15.73C3.51619 14.95 4.07333 13.6129 5.17524 13.6129C5.50952 13.6129 5.81905 13.749 6.05429 13.9719L14.3619 22.2795L20.54 16.089H18.5714C17.8905 16.089 17.3333 15.5319 17.3333 14.851C17.3333 14.17 17.8905 13.6129 18.5714 13.6129H23.5238C24.2048 13.6129 24.7619 14.17 24.7619 14.851V19.8033C24.7619 20.4843 24.2048 21.0414 23.5238 21.0414C22.8429 21.0414 22.2857 20.4843 22.2857 19.8033V17.8348L16.0952 24.0252C15.1295 24.991 13.5571 24.991 12.5914 24.0252L4.29619 15.73Z" fill="#585858"/>
</svg>
