<svg width="13" height="12" viewBox="0 0 13 12" fill="none" xmlns="http://www.w3.org/2000/svg">
<g clip-path="url(#clip0_301_966)">
<path d="M12.55 2.50489L10.495 0.449893C10.2268 0.197965 9.87532 0.0534125 9.50748 0.0437325C9.13963 0.0340524 8.78106 0.15992 8.49998 0.397394L1.74998 7.14739C1.50755 7.39187 1.35661 7.7123 1.32248 8.05489L0.999978 11.1824C0.989875 11.2922 1.00413 11.403 1.04172 11.5067C1.07932 11.6104 1.13933 11.7045 1.21748 11.7824C1.28756 11.8519 1.37067 11.9069 1.46205 11.9442C1.55343 11.9815 1.65127 12.0005 1.74998 11.9999H1.81748L4.94498 11.7149C5.28758 11.6808 5.608 11.5298 5.85248 11.2874L12.6025 4.53739C12.8645 4.26062 13.0061 3.89127 12.9962 3.51029C12.9864 3.12932 12.8259 2.76777 12.55 2.50489V2.50489ZM4.80998 10.2149L2.55998 10.4249L2.76248 8.17489L6.99998 3.98989L9.02498 6.01489L4.80998 10.2149ZM9.99998 5.00989L7.98998 2.99989L9.45248 1.49989L11.5 3.54739L9.99998 5.00989Z" fill="#585858"/>
</g>
<defs>
<clipPath id="clip0_301_966">
<rect width="13" height="12" fill="white"/>
</clipPath>
</defs>
</svg>
