<svg width="16" height="14" viewBox="0 0 16 14" fill="none" xmlns="http://www.w3.org/2000/svg">
<path d="M1.73076 5.03845H10.9615C11.1145 5.03845 11.2613 5.09924 11.3695 5.20743C11.4777 5.31562 11.5385 5.46237 11.5385 5.61538V10.8077C11.5385 11.4197 11.2953 12.0067 10.8625 12.4395C10.4298 12.8722 9.8428 13.1154 9.23076 13.1154H3.46153C2.84949 13.1154 2.26252 12.8722 1.82975 12.4395C1.39697 12.0067 1.15384 11.4197 1.15384 10.8077V5.61538C1.15384 5.46237 1.21462 5.31562 1.32282 5.20743C1.43101 5.09924 1.57775 5.03845 1.73076 5.03845V5.03845Z" stroke="#000001" stroke-width="1.2" stroke-linecap="round" stroke-linejoin="round"/>
<path d="M11.5385 6.19232H12.6923C13.3043 6.19232 13.8913 6.43545 14.3241 6.86823C14.7569 7.30101 15 7.88798 15 8.50001C15 9.11205 14.7569 9.69902 14.3241 10.1318C13.8913 10.5646 13.3043 10.8077 12.6923 10.8077H11.5385" stroke="#000001" stroke-width="1.2" stroke-linecap="round" stroke-linejoin="round"/>
<path d="M2.88461 1V2.15385" stroke="#000001" stroke-width="1.2" stroke-linecap="round" stroke-linejoin="round"/>
<path d="M8.65384 1V2.15385" stroke="#000001" stroke-width="1.2" stroke-linecap="round" stroke-linejoin="round"/>
<path d="M5.76923 1V2.15385" stroke="#000001" stroke-width="1.2" stroke-linecap="round" stroke-linejoin="round"/>
</svg>
